<mxfile host="app.diagrams.net" agent="Mozilla/5.0 (Macintosh; Intel Mac OS X 10_15_7) AppleWebKit/537.36 (KHTML, like Gecko) Chrome/133.0.0.0 Safari/537.36" version="26.0.11">
  <diagram name="Page-1" id="SYwiqu6Nr6_0mF178wVQ">
    <mxGraphModel dx="766" dy="315" grid="1" gridSize="10" guides="1" tooltips="1" connect="1" arrows="1" fold="1" page="1" pageScale="1" pageWidth="850" pageHeight="1100" math="0" shadow="0">
      <root>
        <mxCell id="0" />
        <mxCell id="1" parent="0" />
        <mxCell id="mxbHAJfZiOfYnnYk4IvT-3" style="edgeStyle=orthogonalEdgeStyle;rounded=0;orthogonalLoop=1;jettySize=auto;html=1;exitX=0.5;exitY=0;exitDx=0;exitDy=0;entryX=0.5;entryY=0;entryDx=0;entryDy=0;" edge="1" parent="1" source="l45x60GQ4gw3mojpDYws-1" target="mxbHAJfZiOfYnnYk4IvT-2">
          <mxGeometry relative="1" as="geometry">
            <mxPoint x="620" y="140" as="targetPoint" />
            <Array as="points">
              <mxPoint x="280" y="170" />
              <mxPoint x="640" y="170" />
            </Array>
          </mxGeometry>
        </mxCell>
        <mxCell id="l45x60GQ4gw3mojpDYws-1" value="CDH" style="whiteSpace=wrap;html=1;" parent="1" vertex="1">
          <mxGeometry x="220" y="220" width="120" height="60" as="geometry" />
        </mxCell>
        <mxCell id="mxbHAJfZiOfYnnYk4IvT-1" value="Key:&lt;div&gt;Blocks = Subsystem&lt;/div&gt;&lt;div&gt;Lines = transfer data between system&lt;/div&gt;&lt;div&gt;Circles = Links&lt;/div&gt;&lt;div&gt;Diamonds = Inputs/Outputs (IO)&lt;/div&gt;" style="text;html=1;align=left;verticalAlign=middle;resizable=0;points=[];autosize=1;strokeColor=none;fillColor=none;" vertex="1" parent="1">
          <mxGeometry y="10" width="220" height="90" as="geometry" />
        </mxCell>
        <mxCell id="mxbHAJfZiOfYnnYk4IvT-4" style="edgeStyle=orthogonalEdgeStyle;rounded=0;orthogonalLoop=1;jettySize=auto;html=1;exitX=0.5;exitY=1;exitDx=0;exitDy=0;entryX=0.5;entryY=1;entryDx=0;entryDy=0;" edge="1" parent="1" source="mxbHAJfZiOfYnnYk4IvT-2" target="l45x60GQ4gw3mojpDYws-1">
          <mxGeometry relative="1" as="geometry">
            <Array as="points">
              <mxPoint x="640" y="330" />
              <mxPoint x="280" y="330" />
            </Array>
          </mxGeometry>
        </mxCell>
        <mxCell id="mxbHAJfZiOfYnnYk4IvT-10" style="edgeStyle=none;rounded=0;orthogonalLoop=1;jettySize=auto;html=1;exitX=1;exitY=0.5;exitDx=0;exitDy=0;shape=link;fillColor=#FF220A;strokeColor=light-dark(#FF0707,#FFFFFF);entryX=0;entryY=0.5;entryDx=0;entryDy=0;" edge="1" parent="1" source="mxbHAJfZiOfYnnYk4IvT-2" target="mxbHAJfZiOfYnnYk4IvT-11">
          <mxGeometry relative="1" as="geometry">
            <mxPoint x="880" y="250" as="targetPoint" />
          </mxGeometry>
        </mxCell>
        <mxCell id="mxbHAJfZiOfYnnYk4IvT-2" value="Comms" style="whiteSpace=wrap;html=1;" vertex="1" parent="1">
          <mxGeometry x="580" y="220" width="120" height="60" as="geometry" />
        </mxCell>
        <mxCell id="mxbHAJfZiOfYnnYk4IvT-5" value="Error Codes&lt;div&gt;Satellite Status&lt;/div&gt;&lt;div&gt;Telemetry Data&lt;/div&gt;&lt;div&gt;Tell Comm if command is received&lt;/div&gt;" style="text;html=1;align=left;verticalAlign=middle;resizable=0;points=[];autosize=1;strokeColor=none;fillColor=none;" vertex="1" parent="1">
          <mxGeometry x="370" y="100" width="210" height="70" as="geometry" />
        </mxCell>
        <mxCell id="mxbHAJfZiOfYnnYk4IvT-6" value="Commands recevied" style="text;html=1;align=left;verticalAlign=middle;resizable=0;points=[];autosize=1;strokeColor=none;fillColor=none;" vertex="1" parent="1">
          <mxGeometry x="380" y="340" width="130" height="30" as="geometry" />
        </mxCell>
        <mxCell id="mxbHAJfZiOfYnnYk4IvT-11" value="Ground Station" style="whiteSpace=wrap;html=1;" vertex="1" parent="1">
          <mxGeometry x="960" y="220" width="120" height="60" as="geometry" />
        </mxCell>
        <mxCell id="mxbHAJfZiOfYnnYk4IvT-12" value="Binary Data Packets" style="text;html=1;align=center;verticalAlign=middle;resizable=0;points=[];autosize=1;strokeColor=none;fillColor=none;" vertex="1" parent="1">
          <mxGeometry x="780" y="220" width="130" height="30" as="geometry" />
        </mxCell>
      </root>
    </mxGraphModel>
  </diagram>
</mxfile>
